/* XPM */
static char *_092ba2dda614fb78df6e7a6028dbf76b5eoqWQU8DJAt4J4[] = {
/* columns rows colors chars-per-pixel */
"64 64 210 2 ",
"   c #8F382E",
".  c #8F362E",
"X  c #94332F",
"o  c #9C342F",
"O  c #8D3533",
"+  c #8E3B34",
"@  c #8E3E3A",
"#  c #863933",
"$  c #943533",
"%  c #9C3634",
"&  c #943B35",
"*  c #9C3A34",
"=  c #943738",
"-  c #9E3639",
";  c #943C3A",
":  c #9B3A3A",
">  c #A0382F",
",  c #A33634",
"<  c #A93436",
"1  c #A33A36",
"2  c #AA3B37",
"3  c #A3363A",
"4  c #AA363B",
"5  c #A53C3B",
"6  c #AB3B3C",
"7  c #B2363D",
"8  c #B13A3C",
"9  c #8E4136",
"0  c #8E423C",
"q  c #86463D",
"w  c #924036",
"e  c #93423C",
"r  c #9B433D",
"t  c #9C483F",
"y  c #A4413D",
"u  c #AA413E",
"i  c #B0403F",
"p  c #943E40",
"a  c #9C3E41",
"s  c #A63D41",
"d  c #AA3C41",
"f  c #B03740",
"g  c #B23E43",
"h  c #864740",
"j  c #8C4A44",
"k  c #8E4F48",
"l  c #894944",
"z  c #944542",
"x  c #9B4543",
"c  c #944B44",
"v  c #9B4A44",
"b  c #9B444A",
"n  c #934E49",
"m  c #9D4D4A",
"M  c #8F5246",
"N  c #905145",
"B  c #9D5147",
"V  c #94524B",
"C  c #9C514B",
"Z  c #9E584E",
"A  c #9C5750",
"S  c #9E5F58",
"D  c #A44141",
"F  c #A24443",
"G  c #AB4142",
"H  c #A24A46",
"J  c #A3474B",
"K  c #A24C4B",
"L  c #A84C4B",
"P  c #B34043",
"I  c #A3524C",
"U  c #A9524C",
"Y  c #A45A4F",
"T  c #A04E50",
"R  c #A55353",
"E  c #A65B54",
"W  c #AB5B55",
"Q  c #A65E5A",
"!  c #AC5D59",
"~  c #AD565C",
"^  c #B25A55",
"/  c #B65658",
"(  c #B25E5B",
")  c #B85A5A",
"_  c #9F655A",
"`  c #A76557",
"'  c #AC6156",
"]  c #A4635C",
"[  c #AD635C",
"{  c #A5685E",
"}  c #AB6A5F",
"|  c #B26156",
" . c #B2635C",
".. c #B9655E",
"X. c #B4695E",
"o. c #B8685F",
"O. c #AC6561",
"+. c #A66B62",
"@. c #AC6B63",
"#. c #B36662",
"$. c #BC6661",
"%. c #B26A62",
"&. c #BA6B64",
"*. c #AC726B",
"=. c #A7726A",
"-. c #B3736B",
";. c #B27064",
":. c #BD968A",
">. c #BC9B8D",
",. c #B69C8F",
"<. c #B69F91",
"1. c #BD9D93",
"2. c #B6A18C",
"3. c #BCA294",
"4. c #BEA499",
"5. c #B6A092",
"6. c #C4968C",
"7. c #C9978E",
"8. c #C49B8D",
"9. c #C99B8E",
"0. c #C39591",
"q. c #CA9693",
"w. c #C49C93",
"e. c #CB9C93",
"r. c #C69D99",
"t. c #CB9E99",
"y. c #D19F9B",
"u. c #C1A08D",
"i. c #C4A194",
"p. c #CBA295",
"a. c #C4A399",
"s. c #CBA39A",
"d. c #C5A99B",
"f. c #CDAB9B",
"g. c #C6AA94",
"h. c #D1A295",
"j. c #D1A39A",
"k. c #D5AD9D",
"l. c #DBAD9E",
"z. c #CEB19D",
"x. c #D2B29E",
"c. c #DAB19F",
"v. c #CCA4A1",
"b. c #C7ABA0",
"n. c #CBA9A0",
"m. c #D4AEA3",
"M. c #DCAEA5",
"N. c #DFAFAD",
"B. c #D4A7A1",
"V. c #CEB4A3",
"C. c #CFB8A8",
"Z. c #D4B3A3",
"A. c #DAB3A5",
"S. c #D5BBA6",
"D. c #DBB9A6",
"F. c #D6B5AA",
"G. c #DCB5AA",
"H. c #D5BCAA",
"J. c #DDB9AA",
"K. c #DCBBAB",
"L. c #CCBFB9",
"P. c #D3BFB5",
"I. c #DCBDB2",
"U. c #D8BCB8",
"Y. c #E2ACA2",
"T. c #E1B4A5",
"R. c #E7B8A6",
"E. c #E2B5AA",
"W. c #E3BBAC",
"Q. c #EABCAE",
"!. c #E3BCB2",
"~. c #EBBDB4",
"^. c #E8BFBB",
"/. c #E4B7B2",
"(. c #F6BEBE",
"). c #CCC1AB",
"_. c #DCC1AD",
"`. c #CDC3B3",
"'. c #CEC9B4",
"]. c #CFC5BC",
"[. c #D3C3B5",
"{. c #DDC2B4",
"}. c #D4CBB6",
"|. c #DDCBB6",
" X c #D4C4BA",
".X c #DCC5BA",
"XX c #D6C9BA",
"oX c #DCCABC",
"OX c #E2C1AE",
"+X c #E4C3B5",
"@X c #EAC4B6",
"#X c #E2C9B6",
"$X c #E3C4BA",
"%X c #ECC5BB",
"&X c #E3C9BD",
"*X c #ECCABC",
"=X c #F2C3B7",
"-X c #F2C5BC",
";X c #F2CABD",
":X c #EAD1BD",
">X c #CEC5C0",
",X c #DBC7C0",
"<X c #D9CEC4",
"1X c #E4C6C1",
"2X c #EDC7C1",
"3X c #E4CCC1",
"4X c #ECCBC1",
"5X c #F2C6C1",
"6X c #F2CCC2",
"7X c #EED2C3",
/* pixels */
"& * , , * * , 3 - e a.8.z 3 % 1 - - 3 , & & - ; >.g.e $ : = - 3 3 1 % * % e w.i.z % % 3 : & & * $ * 3 ; 6.f.z * * * * * o o , , ",
"y 5 5 6 5 5 6 5 s m K.K.K 6 G u s s 6 6 r r s x K.K.I 5 y y s d 5 5 u u 5 m G.+XC 5 6 d D D 5 y D D 5 v M.!.R : y 5 5 5 5 5 6 6 ",
"5 5 5 5 6 6 6 5 s m H.H.x 3 6 , 6 6 6 6 5 5 d b A.E.K 5 3 5 d 6 6 3 6 5 3 x A.K.m 5 6 d d s 5 6 3 3 3 x m.!.R 5 5 6 6 5 5 5 6 d ",
"d 6 6 6 6 6 6 5 - v S.D.K 6 6 5 6 6 6 6 5 5 d b M.~.L 5 5 1 6 6 d 5 1 5 5 x G.K.m 5 6 6 d d 6 6 6 6 6 r m.+Xm : 6 6 6 6 5 5 6 s ",
"6 6 6 6 6 6 5 5 G m D.A.H 6 5 5 5 2 2 6 5 5 s b M.~.H 6 u 2 6 6 3 5 5 u 6 x E.W.m 5 6 d s s 8 8 6 6 6 r l.@XC G 6 6 6 6 6 6 5 5 ",
"; ; ; ; : ; ; 0 # k K.D.c O ; e w w & & w 0 z l G.J.n + w & e e ; e & & ; c m.!.j ; : ; p p : : : & & c Z.+XV # e ; ; ; & ; e 0 ",
"s.s.s.s.y.s.s.s.f.a.[.[.i.s.j.p.p.p.p.s.p.s.j.v.U..Xa.i.j.j.p.w.t.s.h.s.s.a.P.P.d.a.s.s.t.s.s.p.e.j.s.i.[. Xd.d.s.s.s.s.p.p.s.s.",
"$X$X&X&X%X%X%X%X@X6XI.{.*X%X~.*XoXXX+X@X%X%X(.(.^.+X*X%X!.%X.X&X%X~.-X+X*X3X{.$X%X+X%X$X&X&X$X%X~.=X@X@X$XI.&X$X$X$X&X&X+X@X%X%X",
"E ] W.E.O.! W ! ( W ^ W W W W { H.H.{ W W W ) / (  .E W ! ] I.I.O.^ ^ W Q ! ! ! W W W ] K.+X{ W W W ^ ^ ! ! W W W ] Z.K.%.W W ! ",
": z T.A.v : 3 5 5 , < < 1 * * v K.Z.c % 1 1 < , , * : : - z F.!.v , 1 1 * : 3 3 5 % 1 v x.K.C * : 1 , , 1 3 1 1 5 ; k.OXv % 5 % ",
"6 x _.H.c 5 6 6 6 6 6 6 6 5 5 m /.J.m 3 5 5 5 6 6 1 y 5 3 J N./.K 5 6 6 5 5 d d 6 2 5 v Z.{.Z : 5 5 2 2 6 6 6 6 6 z Z.{.B 1 5 6 ",
"4 v _.H.C s 6 8 6 6 6 6 6 5 5 K G./.K 5 5 1 5 u G 1 5 5 3 J E.E.K 3 1 6 5 5 6 6 5 5 5 v S.{.B * 5 5 2 2 5 6 6 8 < v V._.I 5 , d ",
"g H D.D.m 5 6 4 6 2 6 2 5 5 5 m K.K.v 6 u 6 6 1 1 5 6 u 5 x G.W.C 5 5 6 6 5 5 5 1 6 5 v Z.OXU 6 5 5 6 2 y 5 6 8 P r Z.W.H 1 6 1 ",
"O c Z.D.V = a ; w 9 w w w e ; j {.Z.N & & & r e e e & & & k V.{.l @ ; * = ; ; ; r r + V S.K.A O e ; & w 9 0 : : O h Z.K.B X r w ",
"j.a.[. Xr.y.j.e.a.i.p.p.s.s.t.s.[.[.a.p.h.j.s.a.a.s.j.h.s.a.[.`.b.i.h.h.e.j.j.p.p.s.p.3. X Xn.B.j.j.p.p.p.p.p.s.f.a. X[.f.p.p.i.",
"+X*X+X!.%X5X~.4XoXXX@X@X%X%X%X%X$X{.%X=X@X*X.XXX&X%X%X@X%X%X{.{.*X%X=X%X$X&X%X%X@X@X*X#X$X+X%X%X-X%X#X|.%X%X%X%X*X$X1XI.=X=X@X%X",
"W W ^ W ! Q ~ O.H.H.] W ' E W W W [ Y ' ! S H.H.+.E W ! ! ! E E ' E ! ] Z.I.+.Q W E W W W W ! ! ! ] x._.@.W W W W Q ] ! ^ ^ W W ",
"* , < , * = - b I.Z.v o $ * % 5 3 : * * % z V._.v % % 3 : * * * % : $ x G.K.n $ * % % * * * * - % z k.+Xv X 1 1 % : * * , , * * ",
"6 6 8 6 5 5 d J E.E.H 5 u u < 6 6 5 u 5 d F Z.OXK 5 6 d 6 6 6 6 5 G 5 x A.J.m s 6 6 6 6 6 5 6 d d x k.+XI 5 6 5 5 5 5 5 6 5 5 5 ",
"6 6 6 2 3 5 s J T.R.F < 5 5 6 6 6 6 6 5 4 F A.W.K 5 6 6 6 6 6 6 6 6 6 x A.~.K 3 6 6 4 6 6 6 6 6 3 x m.+XI 5 5 6 d d 6 6 6 6 5 5 ",
"5 6 6 2 2 y 5 m T.R.t 5 u 1 6 5 6 6 6 6 6 F M.R.K 6 6 6 d d 6 2 6 6 6 y Y.~.L d 6 6 6 6 6 6 6 6 g H k.W.I 5 6 6 d d 6 6 6 6 5 5 ",
"@ ; & & + 9 @ h K.x.N + & & ; ; = : & & = n k.!.c & ; ; ; ; = & ; ; & r M.E.j + ; ; ; ; & & = = O z f.K.V + e & @ ; : : & & & ; ",
"w.w.e.8.u.u.8.i.[.).2.>.9.e.q.q.q.e.e.8.8.1.[. Xa.8.i.w.w.w.w.8.8.p.8.>..X[.1.i.w.w.w.w.w.w.q.q.p.1.[. X1.>.i.w.1.w.t.e.e.8.e.q.",
",X&X*X%X*X%X=X-X$X|.:X*X%X6X$X1X6X%X;X%X*X4X&X{.*X@X*X4XoXoX&X%X*X%X%X%X$XI.7X&X*X&XoX&X%X%X%X%X%X*X$X$X4X*X@X4XoX&X5X-X;X;X-X-X",
"`.I.+.[ [ W $.)  . .' [  .@.I.F.@. . . .[ } O.O. . .[ +.A.K.@.[ [  .|  .O.[ [ [  .@.Z.W.@. .[  . . .#.#. . . .} Z.+X%.( ..(  .[ ",
"}.Z.c % * 1 4 , 5 1 : * $ v F.I.z % 1 * & : : - , , % v A.W.v $ * * o * * : * % % e A.W.r o : % % % - - % % , & Z.K.K % , 1 * : ",
"`.H.m 5 5 d 4 4 d 5 y 5 5 K K.G.m 5 y 5 5 G d 6 6 6 6 r Z.K.v d d 6 5 5 5 5 6 6 6 K A.D.B 5 5 6 5 6 6 d 6 6 6 t z._.I 3 y u 3 3 ",
"`.K.m 3 5 6 4 g g 6 5 5 3 K !.Z.v 5 5 2 5 6 6 6 8 6 6 x A.+Xv , 6 6 6 2 5 5 6 6 < x K.OXv 1 6 5 2 5 6 6 6 6 6 r z.+Xm 1 5 5 5 G ",
"'.H.v 1 8 8 6 6 4 6 6 i 5 v K.S.v 5 6 2 6 6 5 6 6 8 6 r c.R.K 6 6 6 6 2 5 5 6 8 6 L D.A.U 1 1 6 2 5 5 5 6 6 6 r k.+XI 5 u 2 u 5 ",
"'.V.N & * : ; ; ; ; & & ; M V.H.h @ * * * : ; ; * r & j Z.A.c & ; ; & & 9 w * : & j Z.K.B & v & & w e ; ; ; ; q A.H.V @ & + e ; ",
"`. Xw.9.9.e.i.i.a.i.e.9.w.i.[.[.a.8.9.9.7.e.w.w.6.p.>.<.oX Xi.e.e.e.8.8.w.e.e.8.w.3. X Xi.9.8.8.8.8.e.t.e.w.e.i.[. X1.w.w.p.t.t.",
"$X%X-X=X=X*XXXXX3X+X;X=X;X*X+X$X4X%X;X%X$X&X%X*X;X@X*X&X$X{.4X%X2X%X&X&X*X-X=X%X*X3XoX{.;X;X@X*X|.&X-X-X*X%X%X*X$X%X4X*X%X6X+X$X",
"O.#. . .( @.I.H.+.[  . .[ } ' [ [ [ [ } Z.K.*.[  . .[ [ [ [ [  .[ @.H.K.@.[  . .' } ] } | |  .{ m.%X%.! } ` '  . . . .[  .+.F.[.",
": : : * % z F.K.z % - : : * * * * : $ x A.I.C $ * % % % * * * % % e D.OXc $ 5 % : : * * , > * 0 A.W.K $ & & : 1 < 1 * * $ e m.XX",
"d 3 y y 5 K K.H.m 5 6 d d 5 5 6 5 6 5 x m.!.m d 6 6 6 6 6 6 6 d d H A.K.I 3 6 6 d d 6 6 2 2 6 x m./.R 5 r y 5 < 4 5 y y s x Z. X",
"G 5 1 5 4 J !.A.K d d d d d 6 6 6 5 6 x M.~.K 3 6 6 6 6 6 6 6 6 4 : E.+XK 3 6 6 d d 8 6 6 6 6 x m.+XI 5 5 5 6 6 g 6 5 5 6 x A. X",
"3 6 6 u 6 x E.T.H 6 6 d d d 8 8 6 6 6 y Y.Q.L d 6 6 6 6 6 6 6 6 8 L T.T.U 5 6 6 6 d 8 8 2 2 6 x f.+XI 5 i 4 8 8 6 6 u u 6 r Z.}.",
"; e & & ; n Z.K.z = ; ; ; ; * * ; r & v M.G.V @ e e ; ; : : : : & e Z.K.V + x ; ; ; : : * & ; q V.K.V & : = : a ; ; ; & & c f.}.",
"e.e.i.8.w.4.`.[.a.w.a.a.r.t.w.e.8.p.8.>..X Xa.i.i.w.w.w.w.e.e.e.e.i. XXX3.i.w.w.w.w.t.e.e.i.e.a.`. Xw.8.i.s.t.t.a.a.w.e.w.>.[.`.",
"=X@X;X+X%X4X.X&X4X$X*X&X&X&X$X%X*X%X;X*X$XI.4X$X*X&XoX&X%X%X%X%X%X*X$X{.$X4X+X*XXXoX%X=X@X@X%X%X$X@X-X%X+X&X.XXX3X3X%X;X;X@X4X!.",
"!  .| ' ' ] O.[ ( ! [ +.G.K.{ [ [ [ ' | [ O.[ [ ! @.G.K.%.! ! ! [ ' [ [ [ [ W } Z.{.@.(  .W [ ! ( ( ^ ( [ _ G.I.=.] ( ^ ( ( ( ( ",
"* * , * * : : : 3 , % c K.K.e $ * * , * : : : * - e A.W.r o D : % % : - : 3 , r D.D.v % , 1 : : 3 4 < , % w k.@Xn ; 3 < 1 % 3 3 ",
"6 6 6 5 5 5 d 6 6 6 6 v S.H.c G 5 6 5 5 5 5 6 6 6 x Z.OXB 5 d 5 6 6 d 6 6 6 6 v Z.K.m 5 u u 5 5 4 6 5 u u r A.!.R s 6 6 5 5 5 d ",
"6 6 6 6 6 6 6 6 6 6 6 K K.K.v 3 d 6 6 5 5 5 6 8 < F A.K.I 5 , G 6 6 d 6 6 6 6 x Z.+Xm 3 5 1 5 d g 6 1 5 5 e A.W.R 5 6 6 5 3 5 5 ",
"5 5 2 2 6 6 5 5 2 6 6 K D.D.K 6 6 6 6 6 5 5 6 8 g F A.W.H < u 5 2 2 6 5 6 8 6 y A.W.v 5 u 2 6 3 5 6 u u 6 r k.+XR 5 6 6 6 6 5 5 ",
"@ w & * : = @ ; & r + V Z.Z.c = ; ; & & @ @ : : = j Z.K.C & r & & & ; ; ; ; & 0 D.A.V ; & & r ; ; ; ; & & c f.+Xn @ ; & : & ; @ ",
"a.i.p.e.e.e.w.p.8.p.i.3.XX Xw.e.t.t.e.e.e.e.e.p.a.4. X Xs.9.w.i.i.w.y.t.s.i.w.a.[. Xa.i.i.i.e.t.s.w.e.e.w.1.[.[.s.w.s.e.e.e.t.t.",
"&X*X;X*X&X&X*X4X;X+X7X4X{.+X6X%X5X%X&X&X*X-X=X%X4X3X3X{.6X;X%X*XXXoX%X-X4X*X%X4X@X$X4X*X*X*X{.$X*X%X-X;X*X&X3X$X4X%X6X%X&XoX4X2X",
"} %. .-.F.H.*.#.%.X.X.%.%.%.#.#.#.*.H.K.*.#.o.o.%.@.@.%.o.o.#.*.F.I.-.#.@.} X.o.$.$.o.%.%.+.F.I.-. .%.#.%.o.%.%.@.@.%.} Z.{.*.#.",
"& : X v K.K.c $ * * * * * * % - $ v H.K.C $ * * % : & * * % % e G./.m * &   * % , , * & = z m.%Xv $ : = % % % * ; & $ e Z.+Xm $ ",
"s 3 5 v A.K.m s 6 6 6 6 5 5 d d d K K.K.m 3 6 6 d d 6 6 6 5 d m m.~.K 5 D y 6 5 6 6 y y d x m.!.U 5 s s 6 6 d d s 5 6 e Z.+XK s ",
"6 6 6 x W.W.z 5 6 6 d 6 6 6 6 d 3 F W.W.K 5 6 6 d d 6 6 6 6 6 x G.~.K 3 5 6 6 6 g 6 5 5 6 a M.~.U 5 6 6 6 6 6 d d 3 6 r k.@XK 3 ",
"6 < 8 H T.E.K d 6 6 d 6 2 6 6 6 g L E.W.K 6 6 6 6 d 8 8 6 6 5 v A.!.K 5 6 6 8 4 5 5 u u 6 x m.+XI 1 6 6 8 6 6 6 6 6 6 r l.Q.K d ",
"= r $ 0 G.G.h # ; = ; ; * * ; ; O c A.K.N O r & ; ; : : * & ; q C.H.k ; & $ D : ; ; & & & j d.{.M + ; = ; ; ; ; : : $ e l.G.n + ",
"6.6.:.,. X X5.,.>.>.0.6.6.6.8.w.8.,. XXX,.>.>.:.1.w.q.7.8.:.>.1.`.[.,.8.8.8.q.0.0.0.6.6.6.>.[.[.3.:.w.>.>.>.1.1.6.w.6.:. X X1.1.",
"4X%X6X*X{.&X&X&X*X*X&X&X%X%X;X*X*X*X&X{.&X7X+X*XoX&X2X-X;X%X*X4X$X$X6X%X%X6X$X2X2X6X-X-X;X%X4X$X*X%X6X*XoXoX3X4X;X%X6X;X$X{.4X4X",
"@.#.o.o.#.#.%.%. .-.H.H.;. .#. .o. .#.%.%.#.o.@.Z.+X@.$.o. .%.#.O.#.&.o. .@.A./.*.O.$.o. .%.@.%. .o.&.] x.OX=.O.#.o.#.#.#.#.#.#.",
"= * * , - - % , % v D.D.v % 3 % * % - - - % , & D.D.m % , * : : : * * $ & v k.!.j ; - , * * * : % % % e c.OXB $ * * * * * % - 3 ",
"5 5 5 6 6 6 6 6 6 v H.Z.v 5 6 6 6 6 6 d 6 6 6 x Z.W.K 5 u u 3 3 4 6 5 y 5 v D.W.T s 6 6 5 y 5 5 6 g 6 r x._.I 3 6 6 5 5 5 5 6 f ",
"6 6 6 2 6 6 8 8 < x OXS.v 6 4 8 6 6 6 6 6 4 6 x Z.OXv < 6 5 6 d g 6 5 y 1 r K.K.T s 5 6 5 5 5 6 6 < 6 r x.+XU 3 6 6 6 5 5 5 8 7 ",
"6 6 6 2 5 5 8 7 8 H W.D.F 6 6 6 2 2 6 6 6 8 8 F l.Q.K 6 6 1 6 5 6 6 6 u 5 v D.D.C 5 5 6 6 6 5 6 G 6 8 r k.Q.L 6 6 6 6 5 y 5 8 7 ",
"= ; & & @ ; * * = c G.G.v $ : & & & & ; = & : 0 G.G.V ; & . ; & ; & & & @ N z._.l @ ; & & ; ; ; ; & & w k.W.m & = ; ; ; & & : : ",
"q.9.8.8.8.8.8.8.w.1. X.X0.9.w.:.8.8.9.e.w.8.w.w.P. X1.8.8.9.e.e.w.w.e.9.8.,.[.[.r.q.e.9.6.9.w.w.w.w.8.:..XXXw.e.8.8.w.w.8.7.8.w.",
"$X&X|.|.oXoXoXXXXX<X>X X.X&X XoX|.|.$X$XoXXXoXoX]. X<XoX|.oX{.&X&XoX$X&XoXXXoX X1X$X&X$X#X&X&XoXoXXXoXoX XL.3X.X&XoXoXoX+X#XoXoX"
};
