/* XPM */
static char *df6d37fc2ff64410b294f9174527942bo8JPqqJY9FqYO5SX[] = {
/* columns rows colors chars-per-pixel */
"64 64 22 1 ",
"  c #6C6E6B",
". c #8B888B",
"X c #5A5A5A",
"o c #9C9A9D",
"O c #777578",
"+ c gray50",
"@ c #7D7D7E",
"# c #79777A",
"$ c #5C5C5B",
"% c #606060",
"& c #989699",
"* c #6A6B69",
"= c #808080",
"- c #535D3A",
"; c #778B55",
": c #878687",
"> c #828182",
", c #657947",
"< c #5A6D40",
"1 c #807F80",
"2 c #5D6E44",
"3 c #627547",
/* pixels */
"ooooooooooooooooooooooooooooooooooooooooooooooooooooooooooo&%XXX",
"ooooooooooooooooooooooooooooooooooooooooooooooooooooooooooo&%XXX",
"ooooooooooooooooooooooooooooooooooooooooooooooooooooooooooo&%XXX",
"oooo&&&&oooo&&&&oooooooooooooooooooo&&&&&&&&&&&&&&&&&&&&ooo&%XXX",
"ooo&>=>>....>==>....................>=>>>>>>>>>>>>>>>>=>...:$XXX",
"ooo&=@++....+@@+....................+@++++++++++++++++@+...:$XXX",
"ooo&>++=....=++=....................=++++++++++++++++++=...:$XXX",
"ooo&>+==....====...................:=+++========+++++++=:..:$XXX",
"oooo....====:...====================+++1.......:#O##++++=1=@$XXX",
"oooo....1++1....=++++++++++++++++++++++=........#OO#@++++++@$XXX",
"oooo....=++=....=++++++++++++++++++++++1........#OO#++++++=@$XXX",
"oooo...:+@@+:...=1======++++++++++++==1=:......:#O##@+@++@+@$XXX",
"ooo&>+=+####+=1=.......:=+++####+++=:...=1=+####@++@#O###O#O$XXX",
"ooo&=@+@OOOO@++1........=+++#OO#+++=....1++@OOOO++++OOOOOOOO$XXX",
"ooo&>+++#OO#+++=........=++@OOO#+++=....=+++#OO#++++#OOOOOOO$XXX",
"ooo&=@+@OOOO@+@+:.......=1=+#O##+++=:..:+@+@####@++@OOOO#O#O$XXX",
"ooo&#O#O    O#######+=1=:..:+@++++++######O#@++@#O#O    @++@$XXX",
"oooo#OOO    OOOOOOOO@++1....=+++++++OOOOOOO#++++OOOO    @+=@$XXX",
"ooo&#OOO    OOOOOOO#+++=....=+++++++#OOOOOOO++++#O#O  * @+=@$XXX",
"ooo&#OOO    O#####O#@+@+:..:+@+++@+@#O######@++@OOOO    @++@$XXX",
"ooo&#OOO    @+@++++@#O############O#@+@+:..:#O#O    @@@@#O#O$XXX",
"o&o&#OOO    @+++++++OOOOOOOOOOOOOOOO+++=....#OOO    @=++OOOO$XXX",
"ooo&#O#O    @=++++++#OOOOOOOOOOOOOO#+1+=....#O#O    @=++#O#O$XXX",
"&&&&#OOO    @@@@@@@@OOOOOOOOOOOOOOOO@@@@::::#OOO    @@@@OOOO$XXX",
"                                                           *$XXX",
"****                                    ****               *$XXX",
"                                                           *$XXX",
"************************************************************$XXX",
"$$$$$$$$$$$$$$$$$$$$$$$$$$$$$$$$$$$$$$$$$$$$$$$$$$$$$$$$$$$$XXXX",
"XXXXXXXXXXXXXXXX$$$$$$$$XXXXXXXXXXXXXXXX$$$$XXXXXXXXXXXXXXXXXXXX",
"XXXXXXXXXXXXXXXX$$$$XXXXXXXXXXXXXXXXXXXXXXXXXXXXXXXXXXXXXXXXXXXX",
"%%%%%%%%%%%%$$$$$$$$%%%%%%%%XXXX%%%%%%%%%%%%%%%%%%%%$$$$$$$$$$$$",
"&&&&&&&&&&&&********&&&&&&&.%XX%&&&&&&&&&&&&&&&&&&&&3333;;;;;;;;",
"ooooooooo&o& *  *** &oo&&&&&%XX%&oooooooooooooooooo&,333,;;;;;;;",
"ooooooooooo& *  **% &ooo&&&&$XX%&oooooooooooooooooo&,333;;,;;;;;",
"oooo&&&&&&o& ****** &&&&&&&&%XX%&ooooooo&&&&ooooooo&,333;;;;;;;;",
"....:.::...:%%%%=>>>==1=...:$XX%&ooo....>>>>........::::.:::,,,,",
"....::::::.:%$$%>:::@@@@...:$XX%&ooo....+@@+................,3,,",
"....::::...:%$%%>:::+@@+...:$XX%&ooo....=++=...............:,,,,",
"....:::::::>%$$%>:>:@@@@::.:$XX%&ooo...:+@@+............::::,,,,",
"...:#OOO%%%%%$$%########OOO $XX%&oo&>+=+##O#....####...:,,,,::::",
"...:OOOO%%%%$$$%#@######    $XX%&oo&=@+@#OO#....#OO#...:,,,,::::",
"...:#OOO%%%%%$$%###@####O O $XX%&oo&>+++#OO#....#OO#...:,,,,>:::",
"::.:OOOO*%%%%%$%O###OOOO    $XX%&oo&=@+@##O#:..:#OO#:..:,,,,>:::",
"==>+%%%%O#@#*%*%%%%%%%%%%%%%$XX%&oo&#O##@++@####@+++===+2<<2O###",
"===@%%%%#@@#***%$$$$$X$$%%%%XXX%&oo&#OO#++++OOOO+++++++@2<<2O#OO",
">=>@%%$%#@@#*%*%$$$$$$$$%%%%XXX%&oo&#O##++++#OO#@+++++1@2<<<O#OO",
"@@@@%%%%#@@#****%$$$$$$$%*%%$XX%&oo&#O##++++#O##+===++1@2<22O###",
"%*%%OOOOOOO#@#@#    *** OOOO$XX%&oo&;;;;;;;;=+@+:..:=++@OOOO@@@@",
"%%%%O#OOOOOO@@@@O O     ###O$XX%&oo&;;,;;;;;+++=....=+++####@@@@",
"%%%*OOOOOOOO@@@@ O    * O##O$XX%&ooo;,;;;;;;>++=....=+++OOOO@@@@",
"%*%%O#OOO#O#@@@@        O##O$XX%&oo&;;;;;;;;++@+:..:=+++#O##@@@@",
"OOO####@@@@@#O#O    @@@@OOO $XX%&ooo;;;;=>==#O######+++++@+@#O##",
"OOO#@#@#@@@@OOOO    @@@@OOOO$XX%&ooo;;;;++++OOOOOOOO@+++++++OOOO",
"OOOO###@@@@@#OOO    @@@@O O $XX%&ooo;;;;>1=+#OOOOOO#++++++++#OOO",
"OOO#####@@@@OOOO    @@@#OOOO$XX%&&&&;;;;@@@@OOOOOOOO@@@@@@@@OOOO",
"    O O O  O                XXX$    22322222                  O ",
"      O  O   O              $XX$****<<<<<<<<*               O   ",
"    O  O  O                 $XX$*   2<<<<<<<                 O O",
"                ****       *$XX$****<<<<<<<<****************    ",
"$$$$$$$$$$$$$$$$$$$$$$$$$$$$XXXX$$$X------------X$$$$$$X--------",
"XXXXXXXXXXX$XXXXXXXXXXXXXXXXXXXXXXXX------------XXXXXXXX--------",
"XXXXXXXXXXXXXXXXXXXXXXXXXXXXXXXXXXXX------------XXXXXXXX--------",
"XXXXXXXXXXXXXXXXXXXXXXXXXXXXXXXXXXXX------------XXXXXXXX--------"
};
